<svg width="59" height="76" viewBox="0 0 59 76" fill="none" xmlns="http://www.w3.org/2000/svg">
<path d="M31.875 2.42116V26.7109C31.875 26.887 31.945 27.0559 32.0695 27.1805C32.194 27.305 32.3629 27.375 32.5391 27.375H56.8288C56.8944 27.375 56.9586 27.3556 57.0132 27.3193C57.0678 27.2829 57.1104 27.2311 57.1356 27.1706C57.1608 27.11 57.1675 27.0433 57.1549 26.979C57.1422 26.9146 57.1108 26.8554 57.0646 26.8089L32.4411 2.18542C32.3946 2.13917 32.3354 2.10773 32.271 2.09509C32.2066 2.08245 32.14 2.08916 32.0794 2.11438C32.0188 2.1396 31.9671 2.1822 31.9307 2.2368C31.8943 2.2914 31.8749 2.35555 31.875 2.42116Z" fill="black"/>
<path d="M27.8906 32.6875C27.5384 32.6875 27.2006 32.5476 26.9515 32.2985C26.7024 32.0494 26.5625 31.7116 26.5625 31.3594V0.8125H1.99219C1.46383 0.8125 0.957106 1.02239 0.583498 1.396C0.20989 1.76961 0 2.27633 0 2.80469V73.1953C0 73.7237 0.20989 74.2304 0.583498 74.604C0.957106 74.9776 1.46383 75.1875 1.99219 75.1875H56.4453C56.9737 75.1875 57.4804 74.9776 57.854 74.604C58.2276 74.2304 58.4375 73.7237 58.4375 73.1953V32.6875H27.8906ZM45.1562 59.25H13.2812V53.9375H45.1562V59.25ZM45.1562 45.9688H13.2812V40.6562H45.1562V45.9688Z" fill="black"/>
</svg>
